# Blender 4.3.2
# www.blender.org
mtllib cable_end.mtl
o Cable_end
v 0.000000 0.200000 -0.330000
v 0.000000 1.000000 -0.130000
v 0.280000 0.200000 -0.160000
v 0.120000 1.000000 -0.070000
v 0.280000 0.200000 0.160000
v 0.120000 1.000000 0.070000
v 0.000000 0.200000 0.330000
v 0.000000 1.000000 0.130000
v -0.280000 0.200000 0.160000
v -0.120000 1.000000 0.070000
v -0.280000 0.200000 -0.160000
v -0.120000 1.000000 -0.070000
v 0.280000 1.000000 -0.160000
v 0.000000 1.000000 -0.330000
v 0.280000 1.000000 0.160000
v 0.000000 1.000000 0.330000
v -0.280000 1.000000 0.160000
v -0.280000 1.000000 -0.160000
v 0.120000 1.900000 -0.070000
v 0.000000 1.900000 -0.130000
v 0.120000 1.900000 0.070000
v 0.000000 1.900000 0.130000
v -0.120000 1.900000 0.070000
v -0.120000 1.900000 -0.070000
v 0.000000 -0.000000 -0.200000
v 0.170000 -0.000000 -0.100000
v 0.170000 0.000000 0.100000
v 0.000000 0.000000 0.200000
v -0.170000 0.000000 0.100000
v -0.170000 -0.000000 -0.100000
v 0.080000 2.000000 -0.040000
v 0.000000 2.000000 -0.090000
v 0.080000 2.000000 0.040000
v 0.000000 2.000000 0.090000
v -0.080000 2.000000 0.040000
v -0.080000 2.000000 -0.040000
v 0.000000 0.000000 0.000000
vn -0.0000 -0.0000 -1.0000
vn 0.8421 -0.2569 -0.4742
vn -0.0000 -0.2615 -0.9652
vn 0.8715 -0.0000 -0.4904
vn 0.8421 -0.2569 0.4742
vn 0.8715 -0.0000 0.4904
vn -0.0000 -0.2615 0.9652
vn -0.0000 -0.0000 1.0000
vn -0.8421 -0.2569 0.4742
vn -0.8506 -0.0000 0.5257
vn -0.8343 0.2036 -0.5123
vn -0.8507 -0.0000 -0.5257
vn -0.8715 -0.0000 0.4904
vn -0.8421 -0.2569 -0.4742
vn -0.8715 -0.0000 -0.4904
vn -0.0000 -0.5389 -0.8424
vn -0.0000 1.0000 -0.0000
vn -0.8343 0.2036 0.5123
vn -0.0000 0.7593 0.6507
vn -0.5574 0.7773 0.2919
vn 0.8507 -0.0000 0.5257
vn -0.0000 0.1798 0.9837
vn 0.8343 0.2036 -0.5123
vn 0.8506 -0.0000 -0.5257
vn -0.0000 0.1798 -0.9837
vn 0.8343 0.2036 0.5123
vn -0.0000 -0.5389 0.8424
vn 0.7338 -0.5308 0.4241
vn -0.7338 -0.5308 -0.4241
vn 0.7338 -0.5308 -0.4241
vn -0.7338 -0.5308 0.4241
vn -0.0000 0.7593 -0.6507
vn 0.5574 0.7773 0.2919
vn -0.5574 0.7773 -0.2919
vn 0.5574 0.7773 -0.2919
vn -0.0000 -1.0000 -0.0000
vt 0.100000 0.444444
vt 0.000000 0.111111
vt 0.100000 0.111111
vt 0.400000 -0.000000
vt 0.350000 0.388889
vt 0.350000 0.000000
vt 0.000000 0.194444
vt 0.100000 0.194444
vt 0.000000 0.361111
vt 0.100000 0.361111
vt 0.000000 0.444444
vt 0.100000 0.388889
vt 0.150000 0.444444
vt 0.200000 0.000000
vt 0.150000 0.388889
vt 0.150000 0.000000
vt 0.300000 0.000000
vt 0.250000 0.388889
vt 0.250000 0.000000
vt 0.300000 0.388889
vt 0.100000 -0.000000
vt 0.200000 0.388889
vt 0.050000 0.111111
vt 0.000000 0.027778
vt 0.100000 0.027778
vt 0.200000 0.444444
vt 0.400000 0.388889
vt 0.350000 0.444444
vt 0.300000 0.444444
vt 0.250000 0.444444
vt 0.100000 0.083333
vt -0.000000 0.083333
vt 0.050000 -0.000000
vt 0.400000 0.444444
vt 0.070349 0.129704
vt 0.029651 0.129704
s 1
f 14/1/1 3/2/2 1/3/3
f 13/1/4 5/2/5 3/3/2
f 15/1/6 7/2/7 5/3/5
f 16/1/8 9/2/9 7/3/7
f 10/4/10 24/5/11 12/6/12
f 17/1/13 11/2/14 9/3/9
f 18/1/15 1/2/3 11/3/14
f 3/7/2 25/3/16 1/8/3
f 4/9/17 14/1/17 2/10/17
f 6/9/17 13/1/17 4/10/17
f 6/10/17 16/11/17 15/1/17
f 10/9/17 16/1/17 8/10/17
f 12/9/17 17/1/17 10/10/17
f 12/10/17 14/11/17 18/1/17
f 23/12/18 34/13/19 35/1/20
f 6/14/21 22/15/22 8/16/8
f 2/17/1 19/18/23 4/19/24
f 12/6/12 20/20/25 2/17/1
f 8/16/8 23/12/18 10/21/10
f 4/19/24 21/22/26 6/14/21
f 5/8/5 28/2/27 27/3/28
f 11/8/14 25/2/16 30/3/29
f 9/7/9 28/3/27 7/8/7
f 5/7/5 26/3/30 3/8/2
f 11/7/14 29/3/31 9/8/9
f 32/23/32 35/24/20 33/25/33
f 19/18/23 33/26/33 21/22/26
f 23/27/18 36/28/34 24/5/11
f 21/22/26 34/13/19 22/15/22
f 19/18/23 32/29/32 31/30/35
f 24/5/11 32/29/32 20/20/25
f 14/1/1 13/11/4 3/2/2
f 13/1/4 15/11/6 5/2/5
f 15/1/6 16/11/8 7/2/7
f 16/1/8 17/11/13 9/2/9
f 10/4/10 23/27/18 24/5/11
f 17/1/13 18/11/15 11/2/14
f 18/1/15 14/11/1 1/2/3
f 3/7/2 26/2/30 25/3/16
f 4/9/17 13/11/17 14/1/17
f 6/9/17 15/11/17 13/1/17
f 6/10/17 8/9/17 16/11/17
f 10/9/17 17/11/17 16/1/17
f 12/9/17 18/11/17 17/1/17
f 12/10/17 2/9/17 14/11/17
f 23/12/18 22/15/22 34/13/19
f 6/14/21 21/22/26 22/15/22
f 2/17/1 20/20/25 19/18/23
f 12/6/12 24/5/11 20/20/25
f 8/16/8 22/15/22 23/12/18
f 4/19/24 19/18/23 21/22/26
f 5/8/5 7/7/7 28/2/27
f 11/8/14 1/7/3 25/2/16
f 9/7/9 29/2/31 28/3/27
f 5/7/5 27/2/28 26/3/30
f 11/7/14 30/2/29 29/3/31
f 33/25/33 31/31/35 32/23/32
f 32/23/32 36/32/34 35/24/20
f 35/24/20 34/33/19 33/25/33
f 19/18/23 31/30/35 33/26/33
f 23/27/18 35/34/20 36/28/34
f 21/22/26 33/26/33 34/13/19
f 19/18/23 20/20/25 32/29/32
f 24/5/11 36/28/34 32/29/32
f 25/35/36 26/36/36 37/35/36
f 29/35/36 30/36/36 37/35/36
f 28/35/36 29/36/36 37/35/36
f 27/35/36 28/36/36 37/35/36
f 26/35/36 27/36/36 37/35/36
f 30/35/36 25/36/36 37/35/36
