# Blender 4.3.2
# www.blender.org
o Cube
v -0.971133 -0.971133 0.971133
v -1.000000 -1.000000 1.000000
v -0.971133 0.971133 0.971133
v -1.000000 1.000000 1.000000
v -0.971133 -0.971133 -0.971133
v -1.000000 -1.000000 -1.000000
v -0.971133 0.971133 -0.971133
v -1.000000 1.000000 -1.000000
v 0.971133 -0.971133 0.971133
v 1.000000 -1.000000 1.000000
v 0.971133 0.971133 0.971133
v 1.000000 1.000000 1.000000
v 0.971133 -0.971133 -0.971133
v 1.000000 -1.000000 -1.000000
v 0.971133 0.971133 -0.971133
v 1.000000 1.000000 -1.000000
v 0.000000 0.950000 0.000000
v 0.000000 1.000000 0.000000
v 0.950000 0.000000 0.000000
v 1.000000 0.000000 0.000000
v 0.000000 0.000000 0.950000
v 0.000000 0.000000 1.000000
v -0.950000 0.000000 0.000000
v -1.000000 0.000000 0.000000
v 0.000000 0.000000 -0.950000
v 0.000000 0.000000 -1.000000
v 0.000000 -0.950000 0.000000
v 0.000000 -1.000000 0.000000
v -0.985566 0.960566 0.925211
v -0.985566 0.960566 -0.925211
v -0.975000 0.035355 0.000000
v 0.925211 -0.960566 -0.985566
v -0.925211 -0.960566 -0.985566
v 0.000000 -0.035355 -0.975000
v 0.985566 0.925211 0.960566
v 0.985566 -0.925211 0.960566
v 0.975000 0.000000 0.035355
v 0.925211 0.960566 0.985566
v -0.925211 0.960566 0.985566
v 0.000000 0.035355 0.975000
v 0.960566 -0.985566 -0.925211
v 0.960566 -0.985566 0.925211
v 0.035355 -0.975000 0.000000
v -0.960566 0.985566 -0.925211
v -0.960566 0.985566 0.925211
v -0.035355 0.975000 0.000000
v 0.985566 -0.960566 0.925211
v 0.985566 -0.960566 -0.925211
v 0.975000 -0.035355 0.000000
v -0.925211 0.985566 0.960566
v 0.925211 0.985566 0.960566
v 0.000000 0.975000 0.035355
v 0.925211 0.985566 -0.960566
v -0.925211 0.985566 -0.960566
v 0.000000 0.975000 -0.035355
v 0.960566 0.985566 0.925211
v 0.960566 0.985566 -0.925211
v 0.035355 0.975000 0.000000
v 0.960566 -0.925211 0.985566
v 0.960566 0.925211 0.985566
v 0.035355 0.000000 0.975000
v 0.985566 0.960566 -0.925211
v 0.985566 0.960566 0.925211
v 0.975000 0.035355 0.000000
v 0.985566 -0.925211 -0.960566
v 0.985566 0.925211 -0.960566
v 0.975000 0.000000 -0.035355
v -0.985566 -0.960566 -0.925211
v -0.985566 -0.960566 0.925211
v -0.975000 -0.035355 0.000000
v -0.960566 0.925211 0.985566
v -0.960566 -0.925211 0.985566
v -0.035355 0.000000 0.975000
v -0.925211 -0.960566 0.985566
v 0.925211 -0.960566 0.985566
v 0.000000 -0.035355 0.975000
v -0.925211 0.960566 -0.985566
v 0.925211 0.960566 -0.985566
v 0.000000 0.035355 -0.975000
v -0.985566 0.925211 -0.960566
v -0.985566 -0.925211 -0.960566
v -0.975000 0.000000 -0.035355
v -0.985566 -0.925211 0.960566
v -0.985566 0.925211 0.960566
v -0.975000 0.000000 0.035355
v -0.960566 -0.925211 -0.985566
v -0.960566 0.925211 -0.985566
v -0.035355 0.000000 -0.975000
v 0.960566 0.925211 -0.985566
v 0.960566 -0.925211 -0.985566
v 0.035355 0.000000 -0.975000
v 0.925211 -0.985566 0.960566
v -0.925211 -0.985566 0.960566
v 0.000000 -0.975000 0.035355
v -0.925211 -0.985566 -0.960566
v 0.925211 -0.985566 -0.960566
v 0.000000 -0.975000 -0.035355
v -0.960566 -0.985566 0.925211
v -0.960566 -0.985566 -0.925211
v -0.035355 -0.975000 0.000000
vn 0.5907 -0.8069 -0.0000
vn -0.9391 -0.3437 -0.0000
vn 0.8567 0.3740 0.3553
vn -0.7042 0.4980 0.5060
vn 0.7100 0.5020 -0.4939
vn -0.8660 0.3536 -0.3536
vn -0.0000 0.8069 0.5907
vn -0.0000 0.3437 -0.9391
vn 0.3553 -0.3740 0.8567
vn 0.5060 -0.4980 -0.7042
vn -0.4939 -0.5020 0.7100
vn -0.3536 -0.3536 -0.8660
vn -0.5907 -0.0000 -0.8069
vn 0.9391 -0.0000 -0.3437
vn -0.8567 0.3553 0.3740
vn 0.7042 0.5060 0.4980
vn -0.7100 -0.4939 0.5020
vn 0.8660 -0.3536 0.3536
vn -0.0000 -0.8069 -0.5907
vn -0.0000 -0.3437 0.9391
vn 0.3553 0.3740 -0.8567
vn 0.5060 0.4980 0.7042
vn -0.4939 0.5020 -0.7100
vn -0.3536 0.3536 0.8660
vn -0.8069 0.5907 -0.0000
vn -0.3437 -0.9391 -0.0000
vn 0.3740 0.8567 -0.3553
vn 0.4980 -0.7042 -0.5060
vn 0.5020 0.7100 0.4939
vn 0.3536 -0.8660 0.3536
vn 0.8069 -0.5907 -0.0000
vn 0.3437 0.9391 -0.0000
vn -0.3740 -0.8567 -0.3553
vn -0.4980 0.7042 -0.5060
vn -0.5020 -0.7100 0.4939
vn -0.3536 0.8660 0.3536
vn -0.5907 0.8069 -0.0000
vn 0.9391 0.3437 -0.0000
vn -0.8567 -0.3740 0.3553
vn 0.7042 -0.4980 0.5060
vn -0.7100 -0.5020 -0.4939
vn 0.8660 -0.3536 -0.3536
vn -0.0000 -0.5907 -0.8069
vn -0.0000 0.9391 -0.3437
vn -0.3553 -0.8567 0.3740
vn -0.5060 0.7042 0.4980
vn 0.4939 -0.7100 0.5020
vn 0.3536 0.8660 0.3536
vn -0.0000 -0.5907 0.8069
vn -0.0000 0.9391 0.3437
vn 0.3553 -0.8567 -0.3740
vn 0.5060 0.7042 -0.4980
vn -0.4939 -0.7100 -0.5020
vn -0.3536 0.8660 -0.3536
vn -0.8069 -0.5907 -0.0000
vn -0.3437 0.9391 -0.0000
vn 0.3740 -0.8567 0.3553
vn 0.4980 0.7042 0.5060
vn 0.5020 -0.7100 -0.4939
vn 0.3536 0.8660 -0.3536
vn -0.8069 -0.0000 -0.5907
vn -0.3437 -0.0000 0.9391
vn 0.3740 -0.3553 -0.8567
vn 0.4980 -0.5060 0.7042
vn 0.5020 0.4939 -0.7100
vn 0.3536 0.3536 0.8660
vn -0.5907 -0.8069 -0.0000
vn 0.9391 -0.3437 -0.0000
vn -0.8567 0.3740 -0.3553
vn 0.7042 0.4980 -0.5060
vn -0.7100 0.5020 0.4939
vn 0.8660 0.3536 0.3536
vn -0.5907 -0.0000 0.8069
vn 0.9391 -0.0000 0.3437
vn -0.8567 -0.3553 -0.3740
vn 0.7042 -0.5060 -0.4980
vn -0.7100 0.4939 -0.5020
vn 0.8660 0.3536 -0.3536
vn 0.5907 0.8069 -0.0000
vn -0.9391 0.3437 -0.0000
vn 0.8567 -0.3740 -0.3553
vn -0.7042 -0.4980 -0.5060
vn 0.7100 -0.5020 0.4939
vn -0.8660 -0.3536 0.3536
vn 0.8069 -0.0000 -0.5907
vn 0.3437 -0.0000 0.9391
vn -0.3740 0.3553 -0.8567
vn -0.4980 0.5060 0.7042
vn -0.5020 -0.4939 -0.7100
vn -0.3536 -0.3536 0.8660
vn -0.0000 0.8069 -0.5907
vn -0.0000 0.3437 0.9391
vn -0.3553 -0.3740 -0.8567
vn -0.5060 -0.4980 0.7042
vn 0.4939 -0.5020 -0.7100
vn 0.3536 -0.3536 0.8660
vn -0.0000 -0.8069 0.5907
vn -0.0000 -0.3437 -0.9391
vn -0.3553 0.3740 0.8567
vn -0.5060 0.4980 -0.7042
vn 0.4939 0.5020 0.7100
vn 0.3536 0.3536 -0.8660
vn 0.5907 -0.0000 0.8069
vn -0.9391 -0.0000 0.3437
vn 0.8567 0.3553 -0.3740
vn -0.7042 0.5060 -0.4980
vn 0.7100 -0.4939 -0.5020
vn -0.8660 -0.3536 -0.3536
vn 0.5907 -0.0000 -0.8069
vn -0.9391 -0.0000 -0.3437
vn 0.8567 -0.3553 0.3740
vn -0.7042 -0.5060 0.4980
vn 0.7100 0.4939 0.5020
vn -0.8660 0.3536 0.3536
vn 0.8069 -0.0000 0.5907
vn 0.3437 -0.0000 -0.9391
vn -0.3740 -0.3553 0.8567
vn -0.4980 -0.5060 -0.7042
vn -0.5020 0.4939 0.7100
vn -0.3536 0.3536 -0.8660
vn -0.8069 -0.0000 0.5907
vn -0.3437 -0.0000 -0.9391
vn 0.3740 0.3553 0.8567
vn 0.4980 0.5060 -0.7042
vn 0.5020 -0.4939 0.7100
vn 0.3536 -0.3536 -0.8660
vn -0.0000 0.5907 -0.8069
vn -0.0000 -0.9391 -0.3437
vn 0.3553 0.8567 0.3740
vn 0.5060 -0.7042 0.4980
vn -0.4939 0.7100 0.5020
vn -0.3536 -0.8660 0.3536
vn -0.0000 0.5907 0.8069
vn -0.0000 -0.9391 0.3437
vn -0.3553 0.8567 -0.3740
vn -0.5060 -0.7042 -0.4980
vn 0.4939 0.7100 -0.5020
vn 0.3536 -0.8660 -0.3536
vn 0.8069 0.5907 -0.0000
vn 0.3437 -0.9391 -0.0000
vn -0.3740 0.8567 0.3553
vn -0.4980 -0.7042 0.5060
vn -0.5020 0.7100 -0.4939
vn -0.3536 -0.8660 -0.3536
vn 0.7100 0.5020 0.4939
vn 0.8567 0.3740 -0.3553
vn -0.7042 0.4980 -0.5060
vn 0.4939 -0.5020 0.7100
vn -0.3553 -0.3740 0.8567
vn -0.5060 -0.4980 -0.7042
vn -0.7100 0.4939 0.5020
vn -0.8567 -0.3553 0.3740
vn 0.7042 -0.5060 0.4980
vn 0.4939 0.5020 -0.7100
vn -0.3553 0.3740 -0.8567
vn -0.5060 0.4980 0.7042
vn 0.5020 0.7100 -0.4939
vn 0.3740 0.8567 0.3553
vn 0.4980 -0.7042 0.5060
vn -0.5020 -0.7100 -0.4939
vn -0.3740 -0.8567 0.3553
vn -0.4980 0.7042 0.5060
vn -0.7100 -0.5020 0.4939
vn -0.8567 -0.3740 -0.3553
vn 0.7042 -0.4980 -0.5060
vn -0.4939 -0.7100 0.5020
vn 0.3553 -0.8567 0.3740
vn 0.5060 0.7042 0.4980
vn 0.4939 -0.7100 -0.5020
vn -0.3553 -0.8567 -0.3740
vn -0.5060 0.7042 -0.4980
vn 0.5020 -0.7100 0.4939
vn 0.3740 -0.8567 -0.3553
vn 0.4980 0.7042 -0.5060
vn 0.5020 -0.4939 -0.7100
vn 0.3740 0.3553 -0.8567
vn 0.4980 0.5060 0.7042
vn -0.7100 0.5020 -0.4939
vn -0.8567 0.3740 0.3553
vn 0.7042 0.4980 0.5060
vn -0.7100 -0.4939 -0.5020
vn -0.8567 0.3553 -0.3740
vn 0.7042 0.5060 -0.4980
vn 0.7100 -0.5020 -0.4939
vn 0.8567 -0.3740 0.3553
vn -0.7042 -0.4980 0.5060
vn -0.5020 0.4939 -0.7100
vn -0.3740 -0.3553 -0.8567
vn -0.4980 -0.5060 0.7042
vn -0.4939 -0.5020 -0.7100
vn 0.3553 -0.3740 -0.8567
vn 0.5060 -0.4980 0.7042
vn -0.4939 0.5020 0.7100
vn 0.3553 0.3740 0.8567
vn 0.5060 0.4980 -0.7042
vn 0.7100 0.4939 -0.5020
vn 0.8567 -0.3553 -0.3740
vn -0.7042 -0.5060 -0.4980
vn 0.7100 -0.4939 0.5020
vn 0.8567 0.3553 0.3740
vn -0.7042 0.5060 0.4980
vn -0.5020 -0.4939 0.7100
vn -0.3740 0.3553 0.8567
vn -0.4980 0.5060 -0.7042
vn 0.5020 0.4939 0.7100
vn 0.3740 -0.3553 0.8567
vn 0.4980 -0.5060 -0.7042
vn 0.4939 0.7100 0.5020
vn -0.3553 0.8567 0.3740
vn -0.5060 -0.7042 0.4980
vn -0.4939 0.7100 -0.5020
vn 0.3553 0.8567 -0.3740
vn 0.5060 -0.7042 -0.4980
vn -0.5020 0.7100 0.4939
vn -0.3740 0.8567 -0.3553
vn -0.4980 -0.7042 -0.5060
vt 0.625000 0.250000
vt 0.625000 0.000000
vt 0.125000 0.500000
vt 0.375000 0.500000
vt 0.375000 0.750000
vt 0.625000 0.750000
vt 0.625000 1.000000
vt 0.625000 0.500000
vt 0.125000 0.750000
vt 0.375000 0.000000
vt 0.375000 0.250000
s 0
f 30/1/1 3/2/1 29/2/1
f 29/2/2 8/1/2 30/1/2
f 30/1/3 23/2/3 7/1/3
f 30/1/4 24/2/4 31/2/4
f 29/2/5 23/2/5 31/2/5
f 29/2/6 24/2/6 4/2/6
f 33/3/7 13/4/7 32/4/7
f 32/4/8 6/3/8 33/3/8
f 33/3/9 25/4/9 5/3/9
f 33/3/10 26/4/10 34/4/10
f 32/4/11 25/4/11 34/4/11
f 32/4/12 26/4/12 14/4/12
f 36/5/13 11/6/13 35/6/13
f 35/6/14 10/5/14 36/5/14
f 36/5/15 19/6/15 9/5/15
f 36/5/16 20/6/16 37/6/16
f 35/6/17 19/6/17 37/6/17
f 35/6/18 20/6/18 12/6/18
f 39/7/19 11/6/19 38/6/19
f 38/6/20 4/7/20 39/7/20
f 39/7/21 21/6/21 3/7/21
f 39/7/22 22/6/22 40/6/22
f 38/6/23 21/6/23 40/6/23
f 38/6/24 22/6/24 12/6/24
f 42/5/25 13/4/25 41/4/25
f 41/4/26 10/5/26 42/5/26
f 42/5/27 27/4/27 9/5/27
f 42/5/28 28/4/28 43/4/28
f 41/4/29 27/4/29 43/4/29
f 41/4/30 28/4/30 14/4/30
f 45/2/31 7/1/31 44/1/31
f 44/1/32 4/2/32 45/2/32
f 45/2/33 17/1/33 3/2/33
f 45/2/34 18/1/34 46/1/34
f 44/1/35 17/1/35 46/1/35
f 44/1/36 18/1/36 8/1/36
f 48/4/37 9/5/37 47/5/37
f 47/5/38 14/4/38 48/4/38
f 48/4/39 19/5/39 13/4/39
f 48/4/40 20/5/40 49/5/40
f 47/5/41 19/5/41 49/5/41
f 47/5/42 20/5/42 10/5/42
f 51/6/43 3/7/43 50/7/43
f 50/7/44 12/6/44 51/6/44
f 51/6/45 17/7/45 11/6/45
f 51/6/46 18/7/46 52/7/46
f 50/7/47 17/7/47 52/7/47
f 50/7/48 18/7/48 4/7/48
f 54/1/49 15/8/49 53/8/49
f 53/8/50 8/1/50 54/1/50
f 54/1/51 17/8/51 7/1/51
f 54/1/52 18/8/52 55/8/52
f 53/8/53 17/8/53 55/8/53
f 53/8/54 18/8/54 16/8/54
f 57/8/55 11/6/55 56/6/55
f 56/6/56 16/8/56 57/8/56
f 57/8/57 17/6/57 15/8/57
f 57/8/58 18/6/58 58/6/58
f 56/6/59 17/6/59 58/6/59
f 56/6/60 18/6/60 12/6/60
f 60/6/61 9/5/61 59/5/61
f 59/5/62 12/6/62 60/6/62
f 60/6/63 21/5/63 11/6/63
f 60/6/64 22/5/64 61/5/64
f 59/5/65 21/5/65 61/5/65
f 59/5/66 22/5/66 10/5/66
f 63/6/67 15/8/67 62/8/67
f 62/8/68 12/6/68 63/6/68
f 63/6/69 19/8/69 11/6/69
f 63/6/70 20/8/70 64/8/70
f 62/8/71 19/8/71 64/8/71
f 62/8/72 20/8/72 16/8/72
f 66/8/73 13/4/73 65/4/73
f 65/4/74 16/8/74 66/8/74
f 66/8/75 19/4/75 15/8/75
f 66/8/76 20/4/76 67/4/76
f 65/4/77 19/4/77 67/4/77
f 65/4/78 20/4/78 14/4/78
f 69/9/79 5/3/79 68/3/79
f 68/3/80 2/9/80 69/9/80
f 69/9/81 23/3/81 1/9/81
f 69/9/82 24/3/82 70/3/82
f 68/3/83 23/3/83 70/3/83
f 68/3/84 24/3/84 6/3/84
f 72/10/85 3/2/85 71/2/85
f 71/2/86 2/10/86 72/10/86
f 72/10/87 21/2/87 1/10/87
f 72/10/88 22/2/88 73/2/88
f 71/2/89 21/2/89 73/2/89
f 71/2/90 22/2/90 4/2/90
f 75/5/91 1/9/91 74/9/91
f 74/9/92 10/5/92 75/5/92
f 75/5/93 21/9/93 9/5/93
f 75/5/94 22/9/94 76/9/94
f 74/9/95 21/9/95 76/9/95
f 74/9/96 22/9/96 2/9/96
f 78/8/97 7/1/97 77/1/97
f 77/1/98 16/8/98 78/8/98
f 78/8/99 25/1/99 15/8/99
f 78/8/100 26/1/100 79/1/100
f 77/1/101 25/1/101 79/1/101
f 77/1/102 26/1/102 8/1/102
f 81/11/103 7/1/103 80/1/103
f 80/1/104 6/11/104 81/11/104
f 81/11/105 23/1/105 5/11/105
f 81/11/106 24/1/106 82/1/106
f 80/1/107 23/1/107 82/1/107
f 80/1/108 24/1/108 8/1/108
f 84/2/109 1/10/109 83/10/109
f 83/10/110 4/2/110 84/2/110
f 84/2/111 23/10/111 3/2/111
f 84/2/112 24/10/112 85/10/112
f 83/10/113 23/10/113 85/10/113
f 83/10/114 24/10/114 2/10/114
f 87/1/115 5/11/115 86/11/115
f 86/11/116 8/1/116 87/1/116
f 87/1/117 25/11/117 7/1/117
f 87/1/118 26/11/118 88/11/118
f 86/11/119 25/11/119 88/11/119
f 86/11/120 26/11/120 6/11/120
f 90/4/121 15/8/121 89/8/121
f 89/8/122 14/4/122 90/4/122
f 90/4/123 25/8/123 13/4/123
f 90/4/124 26/8/124 91/8/124
f 89/8/125 25/8/125 91/8/125
f 89/8/126 26/8/126 16/8/126
f 93/9/127 9/5/127 92/5/127
f 92/5/128 2/9/128 93/9/128
f 93/9/129 27/5/129 1/9/129
f 93/9/130 28/5/130 94/5/130
f 92/5/131 27/5/131 94/5/131
f 92/5/132 28/5/132 10/5/132
f 96/4/133 5/3/133 95/3/133
f 95/3/134 14/4/134 96/4/134
f 96/4/135 27/3/135 13/4/135
f 96/4/136 28/3/136 97/3/136
f 95/3/137 27/3/137 97/3/137
f 95/3/138 28/3/138 6/3/138
f 99/3/139 1/9/139 98/9/139
f 98/9/140 6/3/140 99/3/140
f 99/3/141 27/9/141 5/3/141
f 99/3/142 28/9/142 100/9/142
f 98/9/143 27/9/143 100/9/143
f 98/9/144 28/9/144 2/9/144
f 30/1/1 7/1/1 3/2/1
f 29/2/2 4/2/2 8/1/2
f 30/1/145 31/2/145 23/2/145
f 30/1/114 8/1/114 24/2/114
f 29/2/146 3/2/146 23/2/146
f 29/2/147 31/2/147 24/2/147
f 33/3/7 5/3/7 13/4/7
f 32/4/8 14/4/8 6/3/8
f 33/3/148 34/4/148 25/4/148
f 33/3/126 6/3/126 26/4/126
f 32/4/149 13/4/149 25/4/149
f 32/4/150 34/4/150 26/4/150
f 36/5/13 9/5/13 11/6/13
f 35/6/14 12/6/14 10/5/14
f 36/5/151 37/6/151 19/6/151
f 36/5/72 10/5/72 20/6/72
f 35/6/152 11/6/152 19/6/152
f 35/6/153 37/6/153 20/6/153
f 39/7/19 3/7/19 11/6/19
f 38/6/20 12/6/20 4/7/20
f 39/7/154 40/6/154 21/6/154
f 39/7/66 4/7/66 22/6/66
f 38/6/155 11/6/155 21/6/155
f 38/6/156 40/6/156 22/6/156
f 42/5/25 9/5/25 13/4/25
f 41/4/26 14/4/26 10/5/26
f 42/5/157 43/4/157 27/4/157
f 42/5/138 10/5/138 28/4/138
f 41/4/158 13/4/158 27/4/158
f 41/4/159 43/4/159 28/4/159
f 45/2/31 3/2/31 7/1/31
f 44/1/32 8/1/32 4/2/32
f 45/2/160 46/1/160 17/1/160
f 45/2/54 4/2/54 18/1/54
f 44/1/161 7/1/161 17/1/161
f 44/1/162 46/1/162 18/1/162
f 48/4/37 13/4/37 9/5/37
f 47/5/38 10/5/38 14/4/38
f 48/4/163 49/5/163 19/5/163
f 48/4/18 14/4/18 20/5/18
f 47/5/164 9/5/164 19/5/164
f 47/5/165 49/5/165 20/5/165
f 51/6/43 11/6/43 3/7/43
f 50/7/44 4/7/44 12/6/44
f 51/6/166 52/7/166 17/7/166
f 51/6/36 12/6/36 18/7/36
f 50/7/167 3/7/167 17/7/167
f 50/7/168 52/7/168 18/7/168
f 54/1/49 7/1/49 15/8/49
f 53/8/50 16/8/50 8/1/50
f 54/1/169 55/8/169 17/8/169
f 54/1/60 8/1/60 18/8/60
f 53/8/170 15/8/170 17/8/170
f 53/8/171 55/8/171 18/8/171
f 57/8/55 15/8/55 11/6/55
f 56/6/56 12/6/56 16/8/56
f 57/8/172 58/6/172 17/6/172
f 57/8/48 16/8/48 18/6/48
f 56/6/173 11/6/173 17/6/173
f 56/6/174 58/6/174 18/6/174
f 60/6/61 11/6/61 9/5/61
f 59/5/62 10/5/62 12/6/62
f 60/6/175 61/5/175 21/5/175
f 60/6/96 12/6/96 22/5/96
f 59/5/176 9/5/176 21/5/176
f 59/5/177 61/5/177 22/5/177
f 63/6/67 11/6/67 15/8/67
f 62/8/68 16/8/68 12/6/68
f 63/6/178 64/8/178 19/8/178
f 63/6/78 12/6/78 20/8/78
f 62/8/179 15/8/179 19/8/179
f 62/8/180 64/8/180 20/8/180
f 66/8/73 15/8/73 13/4/73
f 65/4/74 14/4/74 16/8/74
f 66/8/181 67/4/181 19/4/181
f 66/8/42 16/8/42 20/4/42
f 65/4/182 13/4/182 19/4/182
f 65/4/183 67/4/183 20/4/183
f 69/9/79 1/9/79 5/3/79
f 68/3/80 6/3/80 2/9/80
f 69/9/184 70/3/184 23/3/184
f 69/9/108 2/9/108 24/3/108
f 68/3/185 5/3/185 23/3/185
f 68/3/186 70/3/186 24/3/186
f 72/10/85 1/10/85 3/2/85
f 71/2/86 4/2/86 2/10/86
f 72/10/187 73/2/187 21/2/187
f 72/10/24 2/10/24 22/2/24
f 71/2/188 3/2/188 21/2/188
f 71/2/189 73/2/189 22/2/189
f 75/5/91 9/5/91 1/9/91
f 74/9/92 2/9/92 10/5/92
f 75/5/190 76/9/190 21/9/190
f 75/5/90 10/5/90 22/9/90
f 74/9/191 1/9/191 21/9/191
f 74/9/192 76/9/192 22/9/192
f 78/8/97 15/8/97 7/1/97
f 77/1/98 8/1/98 16/8/98
f 78/8/193 79/1/193 25/1/193
f 78/8/120 16/8/120 26/1/120
f 77/1/194 7/1/194 25/1/194
f 77/1/195 79/1/195 26/1/195
f 81/11/103 5/11/103 7/1/103
f 80/1/104 8/1/104 6/11/104
f 81/11/196 82/1/196 23/1/196
f 81/11/6 6/11/6 24/1/6
f 80/1/197 7/1/197 23/1/197
f 80/1/198 82/1/198 24/1/198
f 84/2/109 3/2/109 1/10/109
f 83/10/110 2/10/110 4/2/110
f 84/2/199 85/10/199 23/10/199
f 84/2/84 4/2/84 24/10/84
f 83/10/200 1/10/200 23/10/200
f 83/10/201 85/10/201 24/10/201
f 87/1/115 7/1/115 5/11/115
f 86/11/116 6/11/116 8/1/116
f 87/1/202 88/11/202 25/11/202
f 87/1/12 8/1/12 26/11/12
f 86/11/203 5/11/203 25/11/203
f 86/11/204 88/11/204 26/11/204
f 90/4/121 13/4/121 15/8/121
f 89/8/122 16/8/122 14/4/122
f 90/4/205 91/8/205 25/8/205
f 90/4/102 14/4/102 26/8/102
f 89/8/206 15/8/206 25/8/206
f 89/8/207 91/8/207 26/8/207
f 93/9/127 1/9/127 9/5/127
f 92/5/128 10/5/128 2/9/128
f 93/9/208 94/5/208 27/5/208
f 93/9/30 2/9/30 28/5/30
f 92/5/209 9/5/209 27/5/209
f 92/5/210 94/5/210 28/5/210
f 96/4/133 13/4/133 5/3/133
f 95/3/134 6/3/134 14/4/134
f 96/4/211 97/3/211 27/3/211
f 96/4/144 14/4/144 28/3/144
f 95/3/212 5/3/212 27/3/212
f 95/3/213 97/3/213 28/3/213
f 99/3/139 5/3/139 1/9/139
f 98/9/140 2/9/140 6/3/140
f 99/3/214 100/9/214 27/9/214
f 99/3/132 6/3/132 28/9/132
f 98/9/215 1/9/215 27/9/215
f 98/9/216 100/9/216 28/9/216
